<?xml version="1.0" standalone="no"?>
<!DOCTYPE svg PUBLIC "-//W3C//DTD SVG 20010904//EN"
 "http://www.w3.org/TR/2001/REC-SVG-20010904/DTD/svg10.dtd">
<svg version="1.0" xmlns="http://www.w3.org/2000/svg"
 width="512.000000pt" height="512.000000pt" viewBox="0 0 512.000000 512.000000"
 preserveAspectRatio="xMidYMid meet">

<g transform="translate(0.000000,512.000000) scale(0.100000,-0.100000)"
fill="#000000" stroke="none">
<path d="M2035 2590 c3 -5 8 -10 11 -10 2 0 4 5 4 10 0 6 -5 10 -11 10 -5 0
-7 -4 -4 -10z"/>
<path d="M2030 2545 c0 -14 4 -25 10 -25 5 0 9 11 8 25 -1 14 -6 25 -10 25 -4
0 -8 -11 -8 -25z"/>
<path d="M1830 2342 c-29 -20 -38 -52 -15 -52 13 0 14 -18 10 -134 l-5 -135
31 -15 31 -15 -4 184 c-2 115 -7 185 -13 185 -5 0 -21 -8 -35 -18z"/>
<path d="M1770 2310 c0 -5 -11 -12 -25 -16 -14 -3 -25 -10 -25 -15 0 -5 14 -3
30 6 26 13 41 35 25 35 -3 0 -5 -4 -5 -10z"/>
<path d="M1624 2232 c-7 -4 -13 -34 -14 -67 -3 -86 -3 -89 15 -72 11 11 12 26
6 66 -7 46 -6 53 13 66 14 10 16 15 6 15 -8 0 -20 -4 -26 -8z"/>
<path d="M1574 2204 c-18 -14 -18 -15 4 -4 12 6 22 13 22 15 0 8 -5 6 -26 -11z"/>
<path d="M1681 2168 c-1 -27 3 -48 7 -48 4 0 6 17 4 38 -5 58 -10 62 -11 10z"/>
<path d="M1525 2180 c-3 -6 1 -7 9 -4 18 7 21 14 7 14 -6 0 -13 -4 -16 -10z"/>
<path d="M1527 2153 c-4 -3 -6 -29 -6 -57 l2 -51 7 45 c4 25 6 48 4 52 -2 3 2
9 8 11 7 3 8 6 2 6 -6 1 -14 -2 -17 -6z"/>
<path d="M3630 2120 c-13 -8 -12 -10 3 -10 9 0 17 5 17 10 0 12 -1 12 -20 0z"/>
<path d="M2076 2081 c-4 -5 3 -7 14 -4 23 6 26 13 6 13 -8 0 -17 -4 -20 -9z"/>
<path d="M1970 2025 c-47 -24 -82 -44 -77 -44 10 -1 167 78 167 84 0 7 4 9
-90 -40z"/>
<path d="M1745 2050 c-3 -6 1 -7 9 -4 18 7 21 14 7 14 -6 0 -13 -4 -16 -10z"/>
<path d="M4120 2039 c0 -5 5 -7 10 -4 6 3 10 8 10 11 0 2 -4 4 -10 4 -5 0 -10
-5 -10 -11z"/>
<path d="M4075 2030 c3 -5 8 -10 11 -10 2 0 4 5 4 10 0 6 -5 10 -11 10 -5 0
-7 -4 -4 -10z"/>
<path d="M3263 1990 c-26 -21 -30 -35 -8 -26 10 3 15 -1 16 -12 0 -12 3 -10
10 7 16 39 8 52 -18 31z"/>
<path d="M1603 1975 l-28 -26 38 22 c37 21 45 29 28 29 -6 0 -23 -11 -38 -25z"/>
<path d="M3929 1985 c5 -11 17 -29 25 -40 l16 -20 -3 20 c-1 11 -6 20 -9 20
-4 0 -14 9 -23 20 l-16 20 10 -20z"/>
<path d="M1858 1973 c7 -3 16 -2 19 1 4 3 -2 6 -13 5 -11 0 -14 -3 -6 -6z"/>
<path d="M3238 1810 c-2 -107 0 -140 10 -140 9 0 12 35 12 140 0 184 -18 184
-22 0z"/>
<path d="M4019 1907 l11 -27 -28 16 -27 16 24 -19 c49 -38 74 -65 65 -72 -5
-3 -9 -29 -9 -58 l0 -51 27 16 c16 9 27 21 26 27 -1 5 3 21 10 35 12 22 11 23
-1 8 -21 -26 -23 -23 -25 33 -1 39 -6 55 -23 70 -30 26 -34 24 -15 -8 14 -22
11 -21 -14 7 -30 33 -31 34 -21 7z"/>
<path d="M1051 1891 c-8 -5 -10 -14 -6 -21 5 -8 2 -18 -7 -24 -14 -10 -14 -15
-2 -36 13 -24 13 -24 14 -3 0 12 5 25 11 28 6 4 8 14 5 22 -3 8 -2 11 3 8 5
-3 12 -1 15 4 9 14 -18 31 -33 22z"/>
<path d="M4106 1885 c-9 -26 -7 -32 5 -12 6 10 9 21 6 23 -2 3 -7 -2 -11 -11z"/>
<path d="M3096 1865 c-18 -13 -18 -15 -2 -21 21 -8 44 12 31 25 -6 6 -17 4
-29 -4z"/>
<path d="M4002 1845 c15 -16 29 -27 31 -24 3 2 -10 15 -27 28 l-31 24 27 -28z"/>
<path d="M4175 1860 c-3 -5 -1 -10 4 -10 6 0 11 5 11 10 0 6 -2 10 -4 10 -3 0
-8 -4 -11 -10z"/>
<path d="M3067 1829 c4 -13 8 -18 11 -10 2 7 -1 18 -6 23 -8 8 -9 4 -5 -13z"/>
<path d="M1170 1826 c0 -2 7 -7 16 -10 8 -3 12 -2 9 4 -6 10 -25 14 -25 6z"/>
<path d="M1000 1803 c0 -5 4 -14 9 -21 7 -11 9 -11 14 1 3 8 3 18 0 21 -9 8
-23 7 -23 -1z"/>
<path d="M2877 1773 c-11 -10 -8 -186 3 -203 7 -10 9 20 8 97 -2 62 -3 113 -4
113 0 0 -4 -3 -7 -7z"/>
<path d="M3011 1764 c0 -11 3 -14 6 -6 3 7 2 16 -1 19 -3 4 -6 -2 -5 -13z"/>
<path d="M1097 1763 c-4 -3 -7 -19 -7 -35 0 -33 -25 -39 -33 -8 -3 11 -13 20
-22 20 -12 0 -15 -5 -10 -17 4 -10 10 -41 12 -70 7 -73 53 -89 53 -19 0 62 12
126 23 119 6 -3 7 -1 3 5 -8 14 -10 14 -19 5z"/>
<path d="M3089 1747 c-9 -7 -18 -19 -22 -27 -4 -11 -6 -11 -6 4 -1 15 -4 16
-16 6 -8 -7 -15 -9 -15 -5 0 20 -28 -19 -32 -44 l-4 -28 43 26 c24 14 43 32
43 39 0 7 4 11 9 8 4 -3 16 3 26 14 14 15 15 20 4 20 -8 0 -21 -6 -30 -13z
m-39 -42 c0 -2 -10 -10 -22 -16 -21 -11 -22 -11 -9 4 13 16 31 23 31 12z"/>
<path d="M3976 1660 c5 -19 8 -67 9 -107 0 -87 15 -111 46 -74 14 17 17 26 8
32 -7 4 -9 19 -5 40 3 19 6 38 5 43 0 5 5 13 13 17 17 11 41 12 34 1 -2 -4 3
-8 13 -8 10 0 18 6 18 13 0 6 -3 11 -6 11 -3 -1 -14 2 -24 7 -13 5 -26 -1 -47
-24 -17 -17 -32 -31 -35 -31 -3 0 -5 13 -5 29 0 16 -7 42 -16 57 l-16 29 8
-35z"/>
<path d="M3940 1600 c18 -12 30 -13 30 -2 0 4 -10 9 -22 9 -18 2 -20 0 -8 -7z"/>
<path d="M3257 1495 c-52 -25 -73 -40 -42 -30 19 6 19 6 2 -5 -10 -7 -21 -10
-24 -7 -2 3 -45 -15 -95 -40 l-91 -45 54 -30 c52 -28 116 -58 126 -58 3 0 2 7
-1 16 -3 8 -2 12 3 9 14 -8 121 47 121 62 0 17 -1 17 -51 -12 -55 -31 -67 -31
-104 1 -16 14 -22 23 -13 20 11 -3 15 0 12 7 -2 7 17 23 43 37 84 44 112 65
113 83 0 9 -1 17 -2 16 -2 0 -25 -11 -51 -24z m-160 -145 c14 -11 21 -20 15
-20 -12 0 -60 39 -49 40 5 0 20 -9 34 -20z"/>
<path d="M2703 1483 c9 -2 25 -2 35 0 9 3 1 5 -18 5 -19 0 -27 -2 -17 -5z"/>
<path d="M2573 1473 c20 -2 54 -2 75 0 20 2 3 4 -38 4 -41 0 -58 -2 -37 -4z"/>
<path d="M3245 1414 c-52 -26 -47 -26 18 -3 20 7 37 17 37 21 0 4 -1 8 -2 7
-2 0 -25 -12 -53 -25z"/>
<path d="M2368 1339 c-32 -16 -58 -31 -58 -33 0 -8 75 25 100 44 34 27 25 24
-42 -11z"/>
<path d="M2174 1234 c-18 -14 -18 -15 4 -4 12 6 22 13 22 15 0 8 -5 6 -26 -11z"/>
<path d="M2035 1160 c-3 -6 1 -7 9 -4 18 7 21 14 7 14 -6 0 -13 -4 -16 -10z"/>
<path d="M2880 1040 c0 -37 15 -36 39 1 15 23 15 23 -2 10 -14 -11 -17 -11
-15 -1 2 7 -3 15 -9 17 -9 3 -13 -6 -13 -27z"/>
<path d="M2835 1050 c6 -10 4 -12 -9 -7 -10 4 -15 3 -11 -3 8 -13 35 -13 35
-1 0 6 -5 13 -12 17 -7 5 -8 3 -3 -6z"/>
<path d="M2790 1025 c0 -8 4 -15 10 -15 5 0 7 7 4 15 -4 8 -8 15 -10 15 -2 0
-4 -7 -4 -15z"/>
<path d="M2826 1011 c-3 -4 6 -6 19 -3 14 2 25 6 25 8 0 8 -39 4 -44 -5z"/>
<path d="M2906 1011 c-4 -5 -2 -12 3 -15 5 -4 12 -2 15 3 4 5 2 12 -3 15 -5 4
-12 2 -15 -3z"/>
<path d="M2929 979 c-16 -17 -29 -36 -29 -42 0 -5 -8 -3 -17 5 -10 8 -25 18
-34 21 -15 5 -15 3 -2 -24 8 -17 13 -47 11 -69 -3 -32 0 -40 17 -44 28 -7 39
7 41 57 1 23 2 47 3 54 1 7 16 26 34 42 17 17 26 31 19 31 -8 0 -27 -14 -43
-31z"/>
<path d="M2625 808 l-20 -21 23 12 c12 6 22 16 22 21 0 13 -2 12 -25 -12z"/>
<path d="M2568 563 c12 -2 32 -2 45 0 12 2 2 4 -23 4 -25 0 -35 -2 -22 -4z"/>
<path d="M2688 563 c7 -3 16 -2 19 1 4 3 -2 6 -13 5 -11 0 -14 -3 -6 -6z"/>
</g>
</svg>
